<?xml version="1.0" standalone="no"?>
<!DOCTYPE svg PUBLIC "-//W3C//DTD SVG 20010904//EN"
 "http://www.w3.org/TR/2001/REC-SVG-20010904/DTD/svg10.dtd">
<svg version="1.0" xmlns="http://www.w3.org/2000/svg"
 width="512.000000pt" height="512.000000pt" viewBox="0 0 512.000000 512.000000"
 preserveAspectRatio="xMidYMid meet">

<g transform="translate(0.000000,512.000000) scale(0.100000,-0.100000)"
fill="#000000" stroke="none">
<path d="M2370 5114 c-19 -2 -73 -9 -120 -15 -323 -39 -640 -154 -900 -326
-148 -99 -347 -294 -439 -433 -119 -178 -201 -373 -241 -570 -26 -128 -26
-184 0 -210 11 -11 27 -20 36 -20 11 0 14 -5 10 -16 -3 -9 -6 -52 -6 -97 -1
-81 -1 -82 -33 -102 -39 -25 -44 -58 -27 -184 35 -267 126 -564 244 -799 l35
-69 -26 -34 c-53 -71 -76 -162 -62 -248 14 -90 95 -284 138 -333 46 -52 118
-93 189 -108 l51 -11 3 -307 c3 -297 4 -308 26 -353 40 -81 86 -125 178 -171
73 -36 93 -52 141 -111 l56 -69 43 5 44 5 56 -74 56 -74 -16 -35 c-15 -31 -15
-38 -2 -63 50 -96 204 -214 340 -259 80 -27 86 -27 381 -31 334 -4 396 3 511
57 141 66 186 109 374 357 180 238 192 250 267 285 83 37 149 100 184 174 l29
60 0 302 0 302 38 6 c95 16 169 60 223 134 40 54 120 264 126 332 7 75 -12
149 -54 211 l-35 50 45 97 c87 185 177 443 177 508 0 31 -22 65 -48 74 -7 3
-6 24 3 69 8 36 14 77 15 92 0 21 6 28 30 33 60 13 65 35 65 270 -1 233 -17
347 -76 528 -200 612 -751 1039 -1489 1152 -100 15 -465 28 -540 19z m72 -661
c116 -115 120 -115 240 4 l88 88 52 -52 52 -52 -92 -94 c-61 -63 -92 -102 -92
-117 0 -15 31 -54 92 -117 l92 -94 -52 -52 -52 -52 -88 88 c-120 119 -124 119
-243 1 l-89 -89 -52 52 -52 52 87 89 c117 120 117 124 0 243 l-87 89 49 50
c27 28 52 50 54 50 3 0 45 -39 93 -87z m1076 -290 c32 -27 37 -64 12 -96 -29
-37 -80 -37 -109 -1 -27 35 -26 59 4 89 28 29 65 32 93 8z m-1758 -403 l0
-220 -222 2 -223 3 -3 205 c-1 112 0 210 2 217 4 10 56 13 226 13 l220 0 0
-220z m2096 -141 c36 -30 19 -106 -27 -121 -58 -19 -110 33 -91 91 15 45 80
62 118 30z m-636 -614 c0 -67 -2 -75 -22 -86 -33 -17 -88 -70 -104 -101 -14
-27 -18 -28 -89 -28 -53 0 -75 4 -75 13 0 30 55 126 98 171 42 44 148 106 180
106 8 0 12 -22 12 -75z m237 45 c34 -17 81 -53 107 -80 43 -46 96 -138 96
-167 0 -9 -23 -13 -80 -13 -60 0 -80 3 -80 13 0 20 -68 95 -101 113 -28 14
-29 17 -29 89 0 88 1 88 87 45z m-366 -432 c17 -33 70 -88 102 -104 26 -14 27
-18 27 -89 0 -53 -4 -75 -12 -75 -30 0 -122 53 -169 97 -47 44 -109 146 -109
181 0 8 22 12 75 12 67 0 75 -2 86 -22z m569 9 c0 -33 -64 -138 -110 -181 -46
-43 -138 -96 -167 -96 -9 0 -13 21 -13 74 l0 73 39 26 c41 27 91 85 91 105 0
8 26 12 80 12 60 0 80 -3 80 -13z"/>
<path d="M1514 3830 c-26 -10 -54 -48 -54 -72 0 -9 11 -29 23 -44 31 -35 82
-38 109 -5 48 60 -10 148 -78 121z"/>
</g>
</svg>
